<svg xmlns="http://www.w3.org/2000/svg" width="48" height="41.143" fill="none" overflow="visible"><path d="M 47.681 2.002 C 47.123 0.774 45.894 -0.011 44.545 0 L 3.455 0 C 2.089 0 0.887 0.768 0.318 2.002 C -0.247 3.212 -0.048 4.642 0.827 5.65 L 0.829 5.652 L 17.144 24.636 L 17.144 39.428 C 17.144 40.061 17.492 40.642 18.049 40.94 C 18.607 41.238 19.283 41.206 19.809 40.855 L 30.094 33.998 C 30.57 33.679 30.857 33.144 30.857 32.571 L 30.857 24.636 L 47.173 5.652 C 48.049 4.643 48.247 3.212 47.681 2.002 Z" fill="rgb(119, 75, 229)"></path></svg>